<svg width="512" height="512" viewBox="0 0 512 512" fill="none" xmlns="http://www.w3.org/2000/svg">
  <rect width="512" height="512" rx="128" fill="#003e31"/>
  <circle cx="256" cy="256" r="180" fill="url(#grad1)" opacity="0.1"/>
  <path d="M160 190C160 173.431 173.431 160 190 160H322C338.569 160 352 173.431 352 190V380C352 396.569 338.569 410 322 410H190C173.431 410 160 396.569 160 380V190Z" fill="#db6a28" stroke="#fee9d1" stroke-width="8"/>
  <path d="M210 160V130C210 102.386 232.386 80 260 80C287.614 80 310 102.386 310 130V160" stroke="#fee9d1" stroke-width="12" stroke-linecap="round"/>
  <circle cx="230" cy="250" r="25" fill="#fee9d1"/>
  <circle cx="282" cy="280" r="35" fill="#fee9d1"/>
  <path d="M200 320H312" stroke="#fee9d1" stroke-width="8" stroke-linecap="round"/>
  <defs>
    <linearGradient id="grad1" x1="256" y1="76" x2="256" y2="436" gradientUnits="userSpaceOnUse">
      <stop stop-color="white"/>
      <stop offset="1" stop-color="white" stop-opacity="0"/>
    </linearGradient>
  </defs>
</svg>
